<?xml version="1.0" encoding="utf-8"?>
<!-- Generator: Adobe Illustrator 16.0.3, SVG Export Plug-In . SVG Version: 6.00 Build 0)  -->
<!DOCTYPE svg PUBLIC "-//W3C//DTD SVG 1.1//EN" "http://www.w3.org/Graphics/SVG/1.1/DTD/svg11.dtd">
<svg version="1.1" id="Layer_1" xmlns="http://www.w3.org/2000/svg" xmlns:xlink="http://www.w3.org/1999/xlink" x="0px" y="0px"
	 width="800px" height="150px" viewBox="0 0 800 150" enable-background="new 0 0 800 150" xml:space="preserve">
<rect x="6.363" y="9.731" fill="none" width="797.418" height="142.045"/>
<text transform="matrix(1 0 0 1 6.3628 106.0303)" display="none" fill="#1E4D2B" font-family="'nicool'" font-size="160.4766">NeighbourHub</text>
<g>
	<path fill="#1E4D2B" d="M12.992,106.461c-0.94-0.966-1.411-1.45-1.411-1.45s0-0.639,0-1.919s0.482-2.402,1.45-3.37
		c0.966-0.966,2.077-1.449,3.33-1.449V21.247c-1.306,0-2.429-0.457-3.369-1.371c-0.94-0.914-1.411-2.011-1.411-3.291
		s0.457-2.402,1.371-3.37c0.914-0.966,2.05-1.501,3.409-1.606h2.586h2.272c0.104,0,0.208,0,0.313,0h0.313h0.157
		c0.627,0.105,1.227,0.313,1.802,0.627v0.157c0.104,0.105,0.208,0.156,0.313,0.156c0.104,0.105,0.208,0.196,0.313,0.274
		c0.104,0.078,0.157,0.17,0.157,0.274h0.157c0.104,0.105,0.157,0.209,0.157,0.313c0.208,0.209,0.365,0.419,0.47,0.627l40.746,70.913
		V16.467c0-1.305,0.482-2.441,1.45-3.408c0.966-0.966,2.102-1.45,3.408-1.45h4.78c1.305,0,2.441,0.484,3.409,1.45
		c0.966,0.967,1.45,2.09,1.45,3.369c0,1.28-0.484,2.403-1.45,3.369c-0.967,0.968-2.104,1.45-3.409,1.45v81.884
		c0,1.045-0.313,1.998-0.94,2.859c-0.627,0.862-1.489,1.45-2.586,1.764c-0.523,0.105-1.045,0.156-1.567,0.156
		c-1.62,0-2.926-0.809-3.917-2.429L25.999,34.567v63.705c1.305,0,2.441,0.483,3.408,1.449c0.966,0.968,1.45,2.09,1.45,3.37
		s-0.483,2.403-1.45,3.369c-0.967,0.967-2.103,1.449-3.408,1.449h-5.407h-4.231C15.055,107.91,13.932,107.428,12.992,106.461z"/>
	<path fill="#1E4D2B" d="M98.323,95.53c-1.62-2.455-2.899-5.224-3.839-8.307c-1.254-3.918-1.881-8.07-1.881-12.459
		c0-0.156,0-0.339,0-0.548c0-5.015,0.835-9.664,2.508-13.948c1.724-4.282,4.1-7.939,7.13-10.97c2.037-2.037,4.283-3.577,6.739-4.623
		c3.448-1.724,7.078-2.586,10.892-2.586c2.873,0,5.537,0.392,7.993,1.176c2.351,0.627,4.544,1.594,6.582,2.898
		c1.305,0.837,2.48,1.777,3.526,2.821c1.305,1.307,2.48,2.717,3.526,4.231c1.201,1.829,2.22,3.788,3.056,5.877
		c0.94,2.351,1.646,4.779,2.116,7.287c0.208,1.202,0.365,2.272,0.47,3.213c0,0.522,0,0.992,0,1.41c0,1.307-0.483,2.429-1.45,3.369
		c-0.967,0.94-2.076,1.411-3.33,1.411h-40.119c0.104,2.978,0.574,5.772,1.411,8.384c0.835,2.874,2.115,5.434,3.839,7.679
		c1.044,1.411,2.167,2.535,3.369,3.37c1.724,1.306,3.552,2.168,5.485,2.586c1.201,0.313,2.376,0.47,3.526,0.47
		c2.559,0,4.858-0.313,6.896-0.94c1.724-0.521,3.317-1.279,4.78-2.272c0.731-0.521,1.436-1.097,2.116-1.724
		c0.627-0.627,1.201-1.332,1.724-2.116c0.418-0.626,0.757-1.044,1.019-1.253c0.521-1.201,1.371-2.038,2.546-2.508
		s2.376-0.47,3.604,0c1.227,0.47,2.089,1.32,2.586,2.547c0.496,1.228,0.509,2.495,0.039,3.8c-0.209,0.523-0.575,1.15-1.097,1.881
		c-0.836,1.307-1.802,2.613-2.899,3.918c-0.94,1.046-2.064,1.986-3.37,2.821c-1.933,1.41-4.023,2.534-6.269,3.369
		c-3.553,1.41-7.444,2.115-11.675,2.115c-3.291,0-6.452-0.652-9.481-1.959c-2.873-1.305-5.538-3.056-7.992-5.25
		C100.882,99.187,99.524,97.463,98.323,95.53z M106.55,59.094c-1.202,1.724-2.168,3.604-2.899,5.642
		c-0.105,0.419-0.209,0.914-0.313,1.488h33.537c-0.313-1.2-0.68-2.271-1.097-3.212c-0.419-1.201-0.967-2.324-1.646-3.37
		c-0.94-1.514-2.012-2.872-3.213-4.074c-0.732-0.627-1.542-1.201-2.429-1.724c-1.046-0.627-2.221-1.123-3.526-1.489
		c-1.62-0.417-3.318-0.627-5.093-0.627c-1.306,0-2.586,0.157-3.839,0.471c-1.307,0.313-2.482,0.811-3.526,1.488
		C110.155,54.94,108.169,56.743,106.55,59.094z"/>
	<path fill="#1E4D2B" d="M163.908,53.373c-1.306,0-2.429-0.482-3.369-1.449c-0.94-0.966-1.411-2.089-1.411-3.369
		c0-1.279,0.482-2.402,1.45-3.369c0.966-0.967,2.077-1.45,3.33-1.45h0.862h1.724h3.839c0.521,0,1.123,0.053,1.802,0.157
		c0.521,0.104,0.992,0.262,1.411,0.47c0.835,0.419,1.646,1.019,2.429,1.802c0.417,0.419,0.783,0.89,1.097,1.411
		c0.521,0.731,0.914,1.541,1.175,2.429c0.104,0.522,0.157,1.097,0.157,1.724c0,0.523,0,9.299,0,26.328c0,16.665,0,25.023,0,25.075
		c0,1.306-0.483,2.429-1.45,3.369c-0.967,0.94-2.09,1.41-3.369,1.41c-1.281,0-2.403-0.482-3.37-1.449
		c-0.967-0.966-1.449-2.076-1.449-3.33V53.373h-3.997H163.908z M169.55,31.512c-0.94-0.627-1.594-1.437-1.958-2.429
		c-0.313-0.731-0.47-1.462-0.47-2.194c0-0.521,0.078-1.058,0.235-1.606s0.417-1.084,0.784-1.606c0.627-0.94,1.41-1.593,2.351-1.959
		c0.731-0.313,1.489-0.47,2.272-0.47c0.521,0,1.058,0.078,1.606,0.234c0.548,0.157,1.083,0.393,1.606,0.706
		c0.94,0.626,1.593,1.437,1.958,2.429c0.313,0.732,0.47,1.488,0.47,2.272c0,0.522-0.078,1.046-0.235,1.567
		c-0.157,0.522-0.419,1.071-0.784,1.646c-0.627,0.939-1.41,1.566-2.351,1.88c-0.732,0.313-1.489,0.471-2.272,0.471
		c-0.523,0-1.085-0.078-1.685-0.235C170.477,32.061,169.967,31.825,169.55,31.512z"/>
	<path fill="#1E4D2B" d="M188.121,124.444c-0.731-1.307-1.305-2.639-1.724-3.997c-0.521-1.619-0.809-3.291-0.862-5.015
		c0-2.143,0.392-4.231,1.175-6.269c0.732-1.932,1.802-3.734,3.213-5.406c0.835-1.045,1.828-2.116,2.978-3.213
		c1.411-1.306,3.029-2.377,4.858-3.213c2.351-1.305,4.909-2.376,7.679-3.213c0.313-0.104,0.706-0.208,1.175-0.313l2.508-6.896
		c-1.724-0.627-3.318-1.488-4.78-2.585c-3.761-2.56-6.557-5.929-8.384-10.108c-1.15-2.769-1.724-5.589-1.724-8.463
		c0-2.611,0.313-5.041,0.94-7.287c0.627-2.142,1.593-4.126,2.899-5.955c2.559-3.762,5.929-6.529,10.108-8.306
		c2.872-1.201,5.877-1.803,9.011-1.803c2.351,0,4.596,0.327,6.739,0.979c2.141,0.654,4.179,1.633,6.112,2.938
		c0.627,0.419,1.254,0.889,1.88,1.41l5.799-3.369c1.201-0.627,2.416-0.783,3.644-0.47c1.227,0.313,2.181,1.031,2.86,2.154
		c0.678,1.124,0.862,2.325,0.548,3.604c-0.313,1.28-1.071,2.286-2.272,3.017l-4.623,2.743c0.208,0.313,0.365,0.653,0.47,1.019
		c1.201,2.873,1.802,5.851,1.802,8.933c0,2.351-0.327,4.598-0.979,6.738c-0.654,2.143-1.633,4.181-2.938,6.112
		c-2.561,3.761-5.93,6.504-10.108,8.228c-2.351,0.94-4.807,1.516-7.366,1.724l-1.41,4.31c3.448,0,6.79,0.405,10.03,1.215
		c3.238,0.811,6.19,1.973,8.854,3.487c1.828,0.939,3.499,2.063,5.015,3.369c2.037,1.829,3.683,3.761,4.937,5.798
		c0.731,1.307,1.332,2.638,1.802,3.997c0.521,1.618,0.784,3.316,0.784,5.093c0,2.142-0.419,4.231-1.254,6.269
		c-0.732,1.933-1.802,3.762-3.212,5.485c-0.836,1.044-1.802,2.063-2.899,3.056c-1.411,1.306-3.004,2.43-4.78,3.369
		c-2.351,1.306-4.937,2.377-7.757,3.213c-3.761,1.045-7.653,1.567-11.675,1.567c-3.553,0-6.974-0.419-10.265-1.254
		c-3.187-0.732-6.139-1.854-8.854-3.369c-1.829-0.94-3.475-2.064-4.937-3.369C191.098,128.57,189.426,126.585,188.121,124.444z
		 M195.486,113.238c-0.209,0.731-0.313,1.462-0.313,2.194c0,0.94,0.157,1.906,0.47,2.899c0.417,0.94,1.019,1.854,1.802,2.742
		c0.521,0.627,1.097,1.279,1.724,1.959c0.94,0.835,2.01,1.567,3.213,2.194c1.724,0.94,3.604,1.697,5.642,2.272
		c2.872,0.835,5.928,1.254,9.168,1.254c2.768,0,5.379-0.313,7.835-0.94c2.455-0.523,4.649-1.332,6.582-2.43
		c1.305-0.627,2.429-1.41,3.37-2.351c1.305-1.045,2.272-2.168,2.899-3.369c0.417-0.627,0.73-1.28,0.94-1.959
		c0.208-0.732,0.313-1.488,0.313-2.272c0-0.94-0.209-1.894-0.627-2.86c-0.418-0.967-0.94-1.919-1.567-2.859
		c-0.523-0.627-1.124-1.229-1.802-1.803c-0.94-0.835-2.064-1.593-3.37-2.272c-1.724-0.94-3.553-1.671-5.485-2.193
		c-2.874-0.835-5.904-1.279-9.089-1.332c-2.77,0-5.459,0.34-8.071,1.019c-2.456,0.522-4.65,1.306-6.582,2.351
		c-1.307,0.627-2.378,1.385-3.213,2.272c-1.306,1.044-2.247,2.22-2.821,3.525C196.035,111.958,195.694,112.612,195.486,113.238z
		 M206.064,72.728c1.515,2.247,3.499,3.867,5.955,4.858c1.619,0.732,3.343,1.097,5.172,1.097c1.41,0,2.754-0.208,4.035-0.627
		c1.28-0.417,2.39-0.939,3.331-1.566c2.245-1.515,3.839-3.499,4.78-5.955c0.731-1.619,1.123-3.343,1.175-5.172
		c0-1.41-0.223-2.742-0.666-3.996c-0.445-1.254-0.979-2.43-1.606-3.526c-1.516-2.245-3.5-3.84-5.955-4.78
		c-1.411-0.626-2.899-0.966-4.466-1.019c-0.209,0-0.419,0-0.627,0c-1.411,0-2.743,0.157-3.997,0.471
		c-1.306,0.419-2.507,1.019-3.604,1.802c-2.247,1.516-3.84,3.448-4.78,5.799c-0.626,1.41-0.94,2.952-0.94,4.623
		c0,1.829,0.208,3.318,0.627,4.467C204.811,70.508,205.333,71.684,206.064,72.728z"/>
	<path fill="#1E4D2B" d="M251.982,21.247c-1.306,0-2.442-0.482-3.408-1.45c-0.967-0.966-1.45-2.089-1.45-3.369
		c0-1.279,0.482-2.402,1.45-3.369c0.966-0.966,2.102-1.45,3.408-1.45h0.784h1.724h3.917c0.522,0,1.097,0.053,1.724,0.157
		c0.521,0.105,1.019,0.262,1.489,0.47c0.835,0.419,1.619,1.019,2.351,1.803c0.417,0.419,0.81,0.889,1.175,1.41
		c0.522,0.732,0.888,1.542,1.097,2.429c0.104,0.523,0.157,1.124,0.157,1.803v29.149h0.157c2.037-1.725,4.075-3.107,6.112-4.153
		c1.411-0.731,2.847-1.306,4.31-1.724c1.828-0.521,3.656-0.81,5.485-0.862c2.245,0,4.335,0.288,6.269,0.862
		c1.828,0.522,3.526,1.254,5.093,2.193c0.94,0.627,1.854,1.332,2.742,2.116c0.94,0.94,1.854,1.959,2.743,3.056
		c0.835,1.307,1.58,2.756,2.233,4.349c0.652,1.595,1.136,3.252,1.45,4.976c0.208,1.307,0.313,2.43,0.313,3.37v40.119
		c0,1.306-0.483,2.429-1.449,3.369c-0.967,0.94-2.09,1.41-3.37,1.41c-1.281,0-2.403-0.482-3.369-1.449
		c-0.967-0.966-1.45-2.076-1.45-3.33V63.012c0-0.104,0-0.235,0-0.392c0-0.313-0.053-0.627-0.157-0.94
		c-0.209-1.306-0.47-2.48-0.784-3.526c-0.313-0.94-0.811-1.75-1.489-2.429c-0.313-0.418-0.627-0.835-0.94-1.254
		c-0.418-0.418-0.94-0.835-1.567-1.254c-0.732-0.418-1.489-0.757-2.272-1.019c-1.202-0.313-2.534-0.471-3.996-0.471
		c-0.732,0-1.502,0.105-2.312,0.313c-0.811,0.21-1.606,0.497-2.39,0.862c-1.62,0.732-3.212,1.776-4.78,3.135
		c-0.94,0.731-1.908,1.594-2.899,2.585c-0.94,1.046-1.907,2.169-2.899,3.37c-0.209,0.313-0.47,0.653-0.784,1.019v40.119
		c0,1.306-0.483,2.429-1.45,3.369c-0.967,0.94-2.09,1.41-3.369,1.41c-1.281,0-2.403-0.482-3.37-1.449
		c-0.967-0.966-1.45-2.076-1.45-3.33V61.366V21.247h-3.996H251.982z"/>
	<path fill="#1E4D2B" d="M316.862,21.247c-1.307,0-2.429-0.482-3.37-1.45c-0.94-0.966-1.41-2.089-1.41-3.369
		c0-1.279,0.482-2.402,1.45-3.369c0.966-0.966,2.076-1.45,3.33-1.45h0.784h1.802h3.839c0.521,0,1.123,0.053,1.802,0.157
		c0.521,0.105,0.992,0.262,1.41,0.47c0.835,0.419,1.646,1.019,2.429,1.803c0.417,0.419,0.784,0.889,1.097,1.41
		c0.521,0.732,0.888,1.542,1.097,2.429c0.104,0.523,0.157,1.124,0.157,1.803v29.149h0.235c2.037-1.725,4.048-3.107,6.034-4.153
		c1.41-0.731,2.872-1.306,4.388-1.724c1.828-0.521,3.63-0.81,5.407-0.862c2.142,0,4.335,0.497,6.582,1.489
		c2.142,0.836,4.179,2.115,6.112,3.839c4.179,3.657,7.288,8.411,9.325,14.262c1.358,4.127,2.037,8.646,2.037,13.556
		c0,0.156,0,0.34,0,0.549c0,5.015-0.679,9.638-2.037,13.869c-1.306,3.866-3.134,7.183-5.485,9.951
		c-1.516,1.724-3.161,3.213-4.937,4.467c-2.351,1.619-4.807,2.742-7.366,3.369c-1.411,0.313-2.821,0.47-4.231,0.47
		c-1.516,0-3.004-0.156-4.466-0.47c-1.411-0.313-2.795-0.679-4.153-1.098c-2.351-0.939-4.545-2.351-6.582-4.23
		c-0.313-0.209-0.601-0.418-0.862-0.627v1.646c0,1.306-0.47,2.429-1.411,3.369s-2.064,1.41-3.37,1.41
		c-1.306,0-2.429-0.482-3.369-1.449c-0.94-0.966-1.411-2.076-1.411-3.33V83.854V61.366V21.247h-4.074H316.862z M332.142,61.993
		c-0.209,0.313-0.497,0.653-0.862,1.019v20.216c0.208,0.627,0.443,1.254,0.705,1.881c0.835,2.143,1.854,4.074,3.056,5.799
		c0.94,1.516,2.011,2.742,3.213,3.683c0.731,0.627,1.462,1.228,2.194,1.802c0.94,0.523,1.906,0.94,2.899,1.254
		c1.305,0.419,2.637,0.627,3.996,0.627c0.731,0,1.489-0.104,2.272-0.313c0.835-0.208,1.697-0.574,2.586-1.097
		c2.037-1.045,3.787-2.612,5.25-4.702c1.201-1.618,2.116-3.421,2.742-5.406c1.044-3.186,1.593-6.843,1.646-10.97
		c0-5.224-0.915-9.821-2.742-13.791c-1.516-3.291-3.448-5.903-5.799-7.836c-1.41-1.045-2.795-1.75-4.153-2.116
		c-0.627-0.208-1.228-0.313-1.802-0.313c-0.732,0-1.502,0.105-2.312,0.313c-0.811,0.21-1.581,0.497-2.312,0.862
		c-1.62,0.732-3.24,1.776-4.858,3.135c-0.94,0.731-1.881,1.594-2.821,2.585C334.048,59.669,333.082,60.792,332.142,61.993z"/>
	<path fill="#1E4D2B" d="M388.56,95.53c-1.62-2.455-2.952-5.172-3.996-8.149c-1.254-3.918-1.881-8.122-1.881-12.616
		c0-0.156,0-0.339,0-0.548c0-5.224,0.835-9.978,2.508-14.262c1.724-4.282,4.1-7.939,7.13-10.97c2.037-1.932,4.335-3.421,6.896-4.467
		c3.448-1.618,7.025-2.429,10.735-2.429c4.283,0,8.267,0.993,11.949,2.978c3.684,1.986,6.804,4.754,9.364,8.306
		c1.724,2.352,3.003,5.016,3.84,7.993c1.41,3.971,2.115,8.254,2.115,12.851c0,4.598-0.654,8.881-1.959,12.851
		c-1.307,3.971-3.108,7.496-5.406,10.578c-1.62,2.037-3.396,3.813-5.329,5.328c-2.664,2.037-5.642,3.475-8.933,4.31
		c-1.829,0.419-3.71,0.627-5.642,0.627c-3.187,0-6.296-0.652-9.324-1.959c-2.874-1.305-5.485-3.056-7.836-5.25
		C391.171,99.187,389.761,97.463,388.56,95.53z M393.731,64.422c-0.94,2.978-1.411,6.243-1.411,9.795
		c0,3.553,0.47,6.869,1.411,9.951c0.94,2.874,2.272,5.381,3.996,7.522c1.044,1.41,2.167,2.586,3.369,3.526
		c1.724,1.306,3.552,2.168,5.485,2.586c1.044,0.313,2.167,0.47,3.369,0.47c1.932,0,3.773-0.378,5.524-1.137
		c1.749-0.756,3.382-1.866,4.897-3.33c1.044-0.94,2.01-2.115,2.899-3.525c1.2-1.828,2.115-3.813,2.742-5.955
		c1.044-3.082,1.567-6.451,1.567-10.108c0-4.075-0.627-7.705-1.881-10.892c-1.202-2.873-2.821-5.302-4.858-7.287
		c-1.307-1.201-2.69-2.142-4.152-2.821c-2.143-0.94-4.389-1.437-6.739-1.489c-2.664,0-5.146,0.615-7.444,1.842
		c-2.299,1.228-4.258,2.966-5.876,5.211C395.428,60.504,394.462,62.385,393.731,64.422z"/>
	<path fill="#1E4D2B" d="M505.548,99.722c0.94,0.968,1.41,2.09,1.41,3.37s-0.483,2.403-1.449,3.369
		c-0.968,0.967-2.077,1.449-3.33,1.449h-6.426c-0.522,0-1.124-0.051-1.802-0.156c-0.523-0.104-0.993-0.261-1.411-0.471
		c-0.836-0.417-1.646-1.019-2.429-1.802c-0.419-0.418-0.783-0.888-1.097-1.41s-0.576-1.123-0.784-1.803
		c-0.209,0.105-0.444,0.262-0.705,0.471c-2.037,1.724-4.049,3.134-6.033,4.23c-1.411,0.732-2.874,1.306-4.389,1.725
		c-1.829,0.521-3.631,0.783-5.406,0.783c-2.247,0-4.337-0.262-6.269-0.783c-1.829-0.523-3.553-1.254-5.172-2.194
		c-0.94-0.627-1.854-1.332-2.742-2.115c-0.94-0.94-1.829-1.959-2.664-3.057c-0.837-1.305-1.581-2.755-2.233-4.349
		c-0.654-1.593-1.163-3.252-1.528-4.976c-0.209-1.306-0.313-2.43-0.313-3.369V48.516c0-1.306,0.482-2.43,1.45-3.37
		c0.966-0.939,2.089-1.41,3.369-1.41c1.279,0,2.402,0.483,3.369,1.45c0.966,0.967,1.45,2.076,1.45,3.33v40.119
		c0,0.104,0,0.209,0,0.313c0,0.313,0.051,0.653,0.156,1.019c0.208,1.306,0.496,2.481,0.862,3.525c0.313,0.94,0.783,1.725,1.41,2.352
		c0.313,0.418,0.627,0.861,0.94,1.332c0.417,0.418,0.966,0.836,1.646,1.253c0.73,0.419,1.462,0.732,2.194,0.94
		c1.2,0.313,2.559,0.497,4.074,0.549c0.73,0,1.501-0.117,2.312-0.353c0.81-0.235,1.579-0.51,2.312-0.823
		c1.618-0.73,3.213-1.802,4.78-3.212c0.939-0.731,1.906-1.567,2.898-2.508c0.94-1.044,1.906-2.167,2.899-3.369
		c0.208-0.313,0.471-0.653,0.784-1.019V48.985v-0.47c0-1.306,0.481-2.43,1.449-3.37c0.966-0.939,2.089-1.41,3.369-1.41
		c1.279,0,2.402,0.483,3.369,1.45s1.45,2.076,1.45,3.33v0.47v1.646v5.799v17.16v16.69v7.992h4.858
		C503.483,98.272,504.607,98.756,505.548,99.722z"/>
	<path fill="#1E4D2B" d="M519.809,53.373c-1.307,0-2.442-0.482-3.408-1.449c-0.968-0.966-1.45-2.089-1.45-3.369
		c0-1.279,0.482-2.402,1.45-3.369c0.966-0.967,2.102-1.45,3.408-1.45h0.783h1.725h3.917c0.522,0,1.098,0.053,1.725,0.157
		c0.521,0.104,1.019,0.262,1.488,0.47c0.835,0.419,1.619,1.019,2.351,1.802c0.418,0.419,0.796,0.89,1.137,1.411
		c0.339,0.522,0.613,1.097,0.822,1.724c0.208-0.104,0.418-0.261,0.627-0.47c2.037-1.725,4.075-3.107,6.112-4.153
		c1.41-0.731,2.847-1.306,4.31-1.724c1.828-0.521,3.656-0.81,5.485-0.862c2.245,0,4.335,0.288,6.269,0.862
		c1.827,0.522,3.525,1.254,5.093,2.193c0.94,0.627,1.854,1.332,2.742,2.116c0.94,0.94,1.854,1.959,2.743,3.056
		c0.835,1.307,1.579,2.756,2.233,4.349c0.652,1.595,1.136,3.252,1.449,4.976c0.208,1.307,0.313,2.43,0.313,3.37
		c0,1.306-0.483,2.429-1.449,3.369c-0.968,0.94-2.091,1.41-3.37,1.41c-1.28,0-2.403-0.456-3.369-1.371
		c-0.967-0.913-1.449-2.05-1.449-3.408c0-0.104,0-0.235,0-0.392c0-0.313-0.053-0.627-0.157-0.94c-0.209-1.306-0.47-2.48-0.783-3.526
		c-0.313-0.94-0.811-1.75-1.489-2.429c-0.313-0.418-0.627-0.835-0.94-1.254c-0.418-0.418-0.939-0.835-1.566-1.254
		c-0.732-0.418-1.489-0.757-2.272-1.019c-1.202-0.313-2.534-0.471-3.996-0.471c-0.732,0-1.503,0.105-2.312,0.313
		c-0.811,0.21-1.606,0.497-2.391,0.862c-1.619,0.732-3.212,1.776-4.779,3.135c-0.94,0.731-1.908,1.594-2.899,2.585
		c-0.94,1.046-1.907,2.169-2.899,3.37c-0.209,0.313-0.47,0.653-0.783,1.019v15.044v25.075c0,1.306-0.483,2.429-1.45,3.369
		s-2.09,1.41-3.369,1.41c-1.28,0-2.403-0.482-3.369-1.449c-0.968-0.966-1.45-2.076-1.45-3.33V61.366v-7.993h-3.996H519.809z"/>
	<path fill="#1E4D2B" d="M587.979,21.247c-1.307,0-2.442-0.482-3.408-1.45c-0.968-0.966-1.45-2.089-1.45-3.369
		c0-1.279,0.482-2.402,1.45-3.369c0.966-0.966,2.102-1.45,3.408-1.45h7.992c1.306,0,2.441,0.484,3.409,1.45
		c0.966,0.967,1.449,2.104,1.449,3.408V54.94h35.261V16.467c0-1.305,0.482-2.441,1.45-3.408c0.966-0.966,2.089-1.45,3.369-1.45
		c1.279,0,2.402,0.484,3.369,1.45c0.966,0.967,1.45,2.104,1.45,3.408v43.332v38.474c1.305,0,2.441,0.483,3.408,1.449
		c0.966,0.968,1.449,2.09,1.449,3.37s-0.483,2.403-1.449,3.369c-0.967,0.967-2.104,1.449-3.408,1.449h-4.78
		c-1.307,0-2.442-0.482-3.408-1.449c-0.968-0.966-1.45-2.076-1.45-3.33V64.578H600.83v38.553c0,1.306-0.483,2.429-1.449,3.369
		c-0.968,0.94-2.09,1.41-3.37,1.41s-2.403-0.482-3.369-1.449c-0.967-0.966-1.449-2.076-1.449-3.33V21.247H587.979z"/>
	<path fill="#1E4D2B" d="M721.267,99.722c0.94,0.968,1.41,2.09,1.41,3.37s-0.483,2.403-1.449,3.369
		c-0.968,0.967-2.077,1.449-3.33,1.449h-6.426c-0.522,0-1.124-0.051-1.802-0.156c-0.523-0.104-0.993-0.261-1.411-0.471
		c-0.836-0.417-1.646-1.019-2.429-1.802c-0.419-0.418-0.783-0.888-1.097-1.41s-0.576-1.123-0.784-1.803
		c-0.209,0.105-0.444,0.262-0.705,0.471c-2.037,1.724-4.049,3.134-6.033,4.23c-1.411,0.732-2.874,1.306-4.389,1.725
		c-1.829,0.521-3.631,0.783-5.406,0.783c-2.247,0-4.337-0.262-6.269-0.783c-1.829-0.523-3.553-1.254-5.172-2.194
		c-0.94-0.627-1.854-1.332-2.742-2.115c-0.94-0.94-1.829-1.959-2.664-3.057c-0.837-1.305-1.581-2.755-2.233-4.349
		c-0.654-1.593-1.163-3.252-1.528-4.976c-0.209-1.306-0.313-2.43-0.313-3.369V48.516c0-1.306,0.482-2.43,1.45-3.37
		c0.966-0.939,2.089-1.41,3.369-1.41c1.279,0,2.402,0.483,3.369,1.45c0.966,0.967,1.45,2.076,1.45,3.33v40.119
		c0,0.104,0,0.209,0,0.313c0,0.313,0.051,0.653,0.156,1.019c0.208,1.306,0.496,2.481,0.862,3.525c0.313,0.94,0.783,1.725,1.41,2.352
		c0.313,0.418,0.627,0.861,0.94,1.332c0.417,0.418,0.966,0.836,1.646,1.253c0.73,0.419,1.462,0.732,2.194,0.94
		c1.2,0.313,2.559,0.497,4.074,0.549c0.73,0,1.501-0.117,2.312-0.353c0.81-0.235,1.579-0.51,2.312-0.823
		c1.618-0.73,3.213-1.802,4.78-3.212c0.939-0.731,1.906-1.567,2.898-2.508c0.94-1.044,1.906-2.167,2.899-3.369
		c0.208-0.313,0.471-0.653,0.784-1.019V48.985v-0.47c0-1.306,0.481-2.43,1.449-3.37c0.966-0.939,2.089-1.41,3.369-1.41
		c1.279,0,2.402,0.483,3.369,1.45s1.45,2.076,1.45,3.33v0.47v1.646v5.799v17.16v16.69v7.992h4.858
		C719.202,98.272,720.326,98.756,721.267,99.722z"/>
	<path fill="#1E4D2B" d="M733.882,21.247c-1.307,0-2.429-0.482-3.369-1.45c-0.94-0.966-1.411-2.089-1.411-3.369
		c0-1.279,0.482-2.402,1.45-3.369c0.966-0.966,2.076-1.45,3.33-1.45h0.783h1.803h3.839c0.522,0,1.123,0.053,1.803,0.157
		c0.521,0.105,0.991,0.262,1.41,0.47c0.835,0.419,1.646,1.019,2.43,1.803c0.417,0.419,0.783,0.889,1.097,1.41
		c0.521,0.732,0.888,1.542,1.097,2.429c0.104,0.523,0.157,1.124,0.157,1.803v29.149h0.234c2.038-1.725,4.048-3.107,6.034-4.153
		c1.41-0.731,2.872-1.306,4.388-1.724c1.828-0.521,3.63-0.81,5.407-0.862c2.141,0,4.335,0.497,6.582,1.489
		c2.141,0.836,4.179,2.115,6.111,3.839c4.179,3.657,7.287,8.411,9.325,14.262c1.357,4.127,2.037,8.646,2.037,13.556
		c0,0.156,0,0.34,0,0.549c0,5.015-0.68,9.638-2.037,13.869c-1.307,3.866-3.135,7.183-5.485,9.951
		c-1.516,1.724-3.161,3.213-4.937,4.467c-2.351,1.619-4.807,2.742-7.366,3.369c-1.41,0.313-2.82,0.47-4.23,0.47
		c-1.517,0-3.005-0.156-4.467-0.47c-1.41-0.313-2.795-0.679-4.153-1.098c-2.351-0.939-4.544-2.351-6.582-4.23
		c-0.313-0.209-0.601-0.418-0.861-0.627v1.646c0,1.306-0.471,2.429-1.411,3.369c-0.939,0.94-2.063,1.41-3.369,1.41
		s-2.429-0.482-3.369-1.449c-0.94-0.966-1.41-2.076-1.41-3.33V83.854V61.366V21.247h-4.075H733.882z M749.161,61.993
		c-0.209,0.313-0.497,0.653-0.861,1.019v20.216c0.208,0.627,0.443,1.254,0.705,1.881c0.835,2.143,1.854,4.074,3.056,5.799
		c0.94,1.516,2.011,2.742,3.213,3.683c0.73,0.627,1.462,1.228,2.194,1.802c0.939,0.523,1.906,0.94,2.898,1.254
		c1.306,0.419,2.638,0.627,3.997,0.627c0.73,0,1.488-0.104,2.272-0.313c0.835-0.208,1.696-0.574,2.585-1.097
		c2.038-1.045,3.787-2.612,5.25-4.702c1.201-1.618,2.116-3.421,2.743-5.406c1.044-3.186,1.593-6.843,1.646-10.97
		c0-5.224-0.915-9.821-2.743-13.791c-1.516-3.291-3.447-5.903-5.798-7.836c-1.411-1.045-2.796-1.75-4.153-2.116
		c-0.627-0.208-1.228-0.313-1.802-0.313c-0.732,0-1.503,0.105-2.312,0.313c-0.811,0.21-1.581,0.497-2.312,0.862
		c-1.62,0.732-3.24,1.776-4.858,3.135c-0.94,0.731-1.881,1.594-2.821,2.585C751.067,59.669,750.102,60.792,749.161,61.993z"/>
</g>
</svg>
